<?xml version="1.0" encoding="UTF-8" standalone="no"?>
<!-- Created with Inkscape (http://www.inkscape.org/) -->

<svg
   xmlns:dc="http://purl.org/dc/elements/1.1/"
   xmlns:cc="http://creativecommons.org/ns#"
   xmlns:rdf="http://www.w3.org/1999/02/22-rdf-syntax-ns#"
   xmlns:svg="http://www.w3.org/2000/svg"
   xmlns="http://www.w3.org/2000/svg"
   xmlns:sodipodi="http://sodipodi.sourceforge.net/DTD/sodipodi-0.dtd"
   xmlns:inkscape="http://www.inkscape.org/namespaces/inkscape"
   width="48"
   height="48"
   id="svg2"
   sodipodi:version="0.32"
   inkscape:version="0.48.3.1 r9886"
   version="1.0"
   sodipodi:docname="wbjj_logo_2.svg"
   inkscape:output_extension="org.inkscape.output.svg.inkscape">
  <defs
     id="defs4">
    <inkscape:perspective
       sodipodi:type="inkscape:persp3d"
       inkscape:vp_x="0 : 526.18109 : 1"
       inkscape:vp_y="0 : 1000 : 0"
       inkscape:vp_z="744.09448 : 526.18109 : 1"
       inkscape:persp3d-origin="372.04724 : 350.78739 : 1"
       id="perspective10" />
  </defs>
  <sodipodi:namedview
     id="base"
     pagecolor="#ffffff"
     bordercolor="#666666"
     borderopacity="1.0"
     gridtolerance="10000"
     guidetolerance="10"
     objecttolerance="10"
     inkscape:pageopacity="0.0"
     inkscape:pageshadow="2"
     inkscape:zoom="5.6"
     inkscape:cx="16.945605"
     inkscape:cy="26.615143"
     inkscape:document-units="px"
     inkscape:current-layer="layer1"
     showgrid="false"
     inkscape:window-width="1280"
     inkscape:window-height="776"
     inkscape:window-x="0"
     inkscape:window-y="24"
     inkscape:window-maximized="1" />
  <metadata
     id="metadata7">
    <rdf:RDF>
      <cc:Work
         rdf:about="">
        <dc:format>image/svg+xml</dc:format>
        <dc:type
           rdf:resource="http://purl.org/dc/dcmitype/StillImage" />
        <dc:title />
      </cc:Work>
    </rdf:RDF>
  </metadata>
  <g
     inkscape:label="Layer 1"
     inkscape:groupmode="layer"
     id="layer1">
    <g
       id="g2381"
       transform="matrix(1.0830701,0,0,1.0830701,-4.0090021,-0.70610084)"
       style="fill:#dfdbd2;fill-opacity:1">
      <path
         id="text3157"
         d="m 19.290336,24.361297 c -1.536756,5.224969 -2.612487,8.29849 -3.073514,9.527894 -3.073511,0.614702 -5.224975,0.922054 -6.4543797,0.922054 -1.2294045,0.153676 -2.3051365,0.153676 -3.2271898,0.153676 -0.9220534,0 -0.7683775,0.461028 0.3073514,1.229405 0.9220533,0.922054 2.1514612,1.229406 3.5345411,0.922055 l 4.917623,-0.922055 c 1.844106,-0.307351 5.532331,-0.614703 11.06465,-0.922054 5.53232,-0.307351 9.527897,-0.153675 11.986705,0.153676 2.458809,0.307351 3.534541,0.153675 3.073515,-0.768379 -0.614703,-0.922053 -1.383083,-1.536757 -2.458812,-1.997784 -1.075729,-0.307351 -2.458813,-0.461027 -4.149244,-0.307351 -1.690431,0.307351 -3.841895,0.461027 -6.300704,0.614703 0.307351,-1.536756 0.922055,-3.380868 1.536757,-5.224974 0.614703,-1.844107 1.229407,-2.919839 1.844109,-3.534542 0.614702,-0.614702 0.461026,-1.229406 -0.307352,-1.844108 -0.768377,-0.614702 -1.536757,-1.07573 -2.151459,-1.383081 -0.768378,-0.307351 -1.536758,-0.153676 -2.15146,0.153675 -0.614703,0.307351 -2.305139,0.768379 -5.071299,1.229406 0.922054,-3.380862 1.536758,-5.37865 1.997785,-6.147028 0.461026,-0.614702 -2e-6,-1.383082 -1.383082,-2.305136 1.536756,-0.307351 3.227192,-0.461027 5.071298,-0.768378 1.844107,-0.153676 3.534543,-0.461028 4.917623,-0.768379 1.38308,-0.307351 1.536756,-0.768379 0.614703,-1.383081 -1.075729,-0.614702 -2.305137,-0.922054 -3.534541,-0.614703 -1.229405,0.307351 -2.919841,0.768379 -5.071299,1.07573 -2.151457,0.307351 -3.99557,0.614703 -5.686001,0.768378 -1.844106,0.307352 -3.073515,0.307352 -3.995568,0.307352 -0.922053,0 -1.075729,0.461028 -0.153676,1.07573 0.922054,0.768378 1.690434,1.07573 2.305136,1.07573 0.614702,0 1.84411,-0.307352 3.688217,-0.614703 0.307351,1.075729 -0.153677,3.995573 -1.229406,8.605839 -2.76616,0.461027 -4.610272,0.614703 -5.839677,0.614703 -1.229404,0 -1.536756,0.307352 -0.614703,0.922054 0.922054,0.768378 1.690434,1.07573 2.458812,0.922055 l 3.534541,-0.768379 m 7.069082,8.759515 -7.837461,0.614703 3.380866,-9.835245 c 1.844107,-0.307351 3.380867,-0.461027 4.456595,-0.614703 0.922054,0 1.536757,0.461028 1.536757,1.383082 0,0.922053 -0.614703,3.841897 -1.536757,8.452163"
         style="font-size:39.34098053px;font-style:normal;font-variant:normal;font-weight:normal;font-stretch:normal;fill:#dfdbd2;fill-opacity:1;stroke:none;font-family:Brioso Pro;-inkscape-font-specification:Brioso Pro"
         inkscape:connector-curvature="0" />
      <path
         id="text2383"
         d="m 17.952365,23.485027 c -1.536756,5.224969 -2.612488,8.298489 -3.073515,9.527894 -3.073511,0.614702 -5.2249748,0.922054 -6.4543792,0.922054 -1.2294044,0.153675 -2.3051365,0.153676 -3.2271898,0.153676 -0.9220533,0 -0.7683774,0.461027 0.3073514,1.229405 0.9220533,0.922054 2.1514613,1.229406 3.5345412,0.922054 l 4.9176224,-0.922054 c 1.844107,-0.307351 5.532331,-0.614703 11.064651,-0.922054 5.53232,-0.307351 9.527896,-0.153675 11.986705,0.153676 2.458809,0.307351 3.534541,0.153674 3.073514,-0.768379 -0.614702,-0.922053 -1.383082,-1.536757 -2.458811,-1.997784 -1.075729,-0.307351 -2.458813,-0.461027 -4.149244,-0.307351 -1.690431,0.307351 -3.841895,0.461027 -6.300704,0.614702 0.307351,-1.536755 0.922055,-3.380867 1.536757,-5.224974 0.614702,-1.844106 1.229406,-2.919839 1.844108,-3.534541 0.614703,-0.614702 0.461027,-1.229406 -0.307351,-1.844108 -0.768378,-0.614702 -1.536758,-1.075731 -2.15146,-1.383082 -0.768378,-0.307351 -1.536758,-0.153675 -2.15146,0.153676 -0.614702,0.307351 -2.305138,0.768379 -5.071298,1.229406 0.922053,-3.380862 1.536757,-5.378651 1.997784,-6.147028 0.461027,-0.614703 -10e-7,-1.383083 -1.383081,-2.305136 1.536755,-0.307351 3.227191,-0.461027 5.071298,-0.768379 1.844107,-0.153675 3.534543,-0.461027 4.917623,-0.768378 1.38308,-0.307351 1.536756,-0.768379 0.614702,-1.383081 -1.075728,-0.6147027 -2.305136,-0.9220544 -3.534541,-0.6147033 -1.229404,0.3073511 -2.91984,0.7683793 -5.071298,1.0757303 -2.151458,0.307351 -3.99557,0.614703 -5.686001,0.768378 -1.844107,0.307351 -3.073515,0.307352 -3.995569,0.307352 -0.922053,0 -1.075729,0.461027 -0.153675,1.07573 0.922053,0.768377 1.690433,1.075729 2.305135,1.075729 0.614703,0 1.844111,-0.307351 3.688217,-0.614702 0.307351,1.075729 -0.153676,3.995573 -1.229405,8.605839 -2.76616,0.461027 -4.610273,0.614703 -5.839677,0.614703 -1.229405,0 -1.536756,0.307352 -0.614703,0.922054 0.922053,0.768378 1.690434,1.07573 2.458811,0.922054 l 3.534542,-0.768378 m 7.069082,8.759515 -7.837461,0.614703 3.380866,-9.835245 c 1.844106,-0.307351 3.380866,-0.461027 4.456595,-0.614703 0.922053,0 1.536757,0.461028 1.536757,1.383081 0,0.922054 -0.614704,3.841898 -1.536757,8.452164"
         style="font-size:39.34098053px;font-style:normal;font-variant:normal;font-weight:normal;font-stretch:normal;fill:#dfdbd2;fill-opacity:1;stroke:none;font-family:Brioso Pro;-inkscape-font-specification:Brioso Pro"
         inkscape:connector-curvature="0" />
    </g>
    <g
       id="layer12"
       transform="matrix(1.5892858,0,0,1.6607144,-68.517858,-1201.2322)"
       style="color:#000000;fill:#dfdbd2;fill-opacity:1;fill-rule:nonzero;stroke:none;stroke-width:0.79805166;marker:none;visibility:visible;display:inline;overflow:visible;enable-background:accumulate">
      <path
         inkscape:connector-curvature="0"
         id="rect31992"
         style="color:#000000;fill:#dfdbd2;fill-opacity:1;fill-rule:nonzero;stroke:none;stroke-width:0.79805166;marker:none;visibility:visible;display:inline;overflow:visible;enable-background:accumulate"
         d="m 67,729 v 4 h -4 v 2 h 4 v 4 h 2 v -4 h 4 v -2 h -4 v -4 h -2 z" />
    </g>
  </g>
</svg>
